<?xml version="1.0" standalone="no"?><!DOCTYPE svg PUBLIC "-//W3C//DTD SVG 1.1//EN" "http://www.w3.org/Graphics/SVG/1.1/DTD/svg11.dtd"><svg t="1587814462628" class="icon" viewBox="0 0 1204 1024" version="1.1" xmlns="http://www.w3.org/2000/svg" p-id="2877" xmlns:xlink="http://www.w3.org/1999/xlink" width="235.15625" height="200"><defs><style type="text/css">@font-face { font-family: element-icons; src: url("chrome-extension://moombeodfomdpjnpocobemoiaemednkg/fonts/element-icons.woff") format("woff"), url("chrome-extension://moombeodfomdpjnpocobemoiaemednkg/fonts/element-icons.ttf ") format("truetype"); }
</style></defs><path d="M988.47058818 62a132.35294092 132.35294092 0 0 1 132.35294093 132.35294092v635.29411816a132.35294092 132.35294092 0 0 1-132.35294093 132.35294092H194.35294092a132.35294092 132.35294092 0 0 1-132.35294092-132.35294092V194.35294092a132.35294092 132.35294092 0 0 1 132.35294092-132.35294092h794.11764726z m52.94117637 344.11764727H141.41176455v423.52941181a52.94117637 52.94117637 0 0 0 48.97058818 52.80882363L194.35294092 882.58823545h794.11764726a52.94117637 52.94117637 0 0 0 52.80882364-48.97058818L1041.41176455 829.64705908V406.11764727z m-145.58823544 264.70588183a39.70588271 39.70588271 0 0 1-1e-8 79.41176543h-211.76470547a39.70588271 39.70588271 0 0 1 0-79.41176543h211.76470548zM988.47058818 141.41176455H194.35294092a52.94117637 52.94117637 0 0 0-52.80882363 48.97058818L141.41176455 194.35294092v132.35294179h900V194.35294092a52.94117637 52.94117637 0 0 0-48.97058818-52.80882363L988.47058818 141.41176455z" p-id="2878"></path></svg>
