<?xml version="1.0" standalone="no"?><!DOCTYPE svg PUBLIC "-//W3C//DTD SVG 1.1//EN" "http://www.w3.org/Graphics/SVG/1.1/DTD/svg11.dtd"><svg t="1587652570421" class="icon" viewBox="0 0 1024 1024" version="1.1" xmlns="http://www.w3.org/2000/svg" p-id="3076" xmlns:xlink="http://www.w3.org/1999/xlink" width="32" height="32"><defs><style type="text/css"></style></defs><path d="M1024 126.628571V43.428571c0-13.257143-10.742857-24-24-24H24C10.742857 19.428571 0 30.171429 0 43.428571v644.571429c0 13.257143 10.742857 24 24 24h113.257143v84.342857c-46.971429 10.514286-82.285714 52.457143-82.285714 102.628572 0 57.942857 47.2 105.142857 105.142857 105.142857s105.142857-47.2 105.142857-105.142857c0-50.171429-35.314286-92.114286-82.285714-102.628572V712h306.514285v84.228571c-47.2 10.285714-82.628571 52.457143-82.628571 102.742858 0 57.942857 47.2 105.142857 105.142857 105.142857s105.142857-47.2 105.142857-105.142857c0-49.942857-35.085714-92-81.942857-102.514286V712h309.485714v83.885714c-48.114286 9.714286-84.342857 52.228571-84.342857 103.085715 0 57.942857 47.2 105.142857 105.142857 105.142857s105.142857-47.2 105.142857-105.142857c0-49.371429-34.171429-90.857143-80.228571-102.171429V712H1000c13.257143 0 24-10.742857 24-24V200h-45.714286v466.285714H45.714286V65.142857h932.571428v61.485714h45.714286zM219.542857 899.085714c0 32.8-26.628571 59.428571-59.428571 59.428572s-59.428571-26.628571-59.428572-59.428572 26.628571-59.428571 59.428572-59.428571 59.428571 26.628571 59.428571 59.428571z m351.885714 0c0 32.8-26.628571 59.428571-59.428571 59.428572s-59.428571-26.628571-59.428571-59.428572 26.628571-59.428571 59.428571-59.428571 59.428571 26.628571 59.428571 59.428571z m353.371429 0c0 32.8-26.628571 59.428571-59.428571 59.428572s-59.428571-26.628571-59.428572-59.428572 26.628571-59.428571 59.428572-59.428571 59.428571 26.628571 59.428571 59.428571z" p-id="3077"></path><path d="M437.828571 419.542857c13.257143 0 24-10.742857 24-24V178.285714c0-13.257143-10.742857-24-24-24H147.428571c-13.257143 0-24 10.742857-24 24v217.257143c0 13.257143 10.742857 24 24 24h290.4zM169.142857 200h246.857143v173.828571H169.142857V200zM123.085714 542.857143h777.257143v45.714286H123.085714z" p-id="3078"></path></svg>