<?xml version="1.0" standalone="no"?><!DOCTYPE svg PUBLIC "-//W3C//DTD SVG 1.1//EN" "http://www.w3.org/Graphics/SVG/1.1/DTD/svg11.dtd"><svg t="1587814442593" class="icon" viewBox="0 0 1025 1024" version="1.1" xmlns="http://www.w3.org/2000/svg" p-id="2387" xmlns:xlink="http://www.w3.org/1999/xlink" width="200.1953125" height="200"><defs><style type="text/css">@font-face { font-family: element-icons; src: url("chrome-extension://moombeodfomdpjnpocobemoiaemednkg/fonts/element-icons.woff") format("woff"), url("chrome-extension://moombeodfomdpjnpocobemoiaemednkg/fonts/element-icons.ttf ") format("truetype"); }
</style></defs><path d="M851.2 550.4c-19.2 0-38.4 19.2-38.4 38.4v332.8H211.2V588.8c0-19.2-19.2-38.4-38.4-38.4s-38.4 19.2-38.4 38.4V960c0 19.2 19.2 38.4 38.4 38.4h678.4c19.2 0 38.4-19.2 38.4-38.4V588.8c0-19.2-19.2-38.4-38.4-38.4z" p-id="2388"></path><path d="M1011.2 512L537.6 32c-12.8-12.8-38.4-12.8-51.2 0L12.8 512c-12.8 12.8-12.8 38.4 0 51.2 12.8 12.8 38.4 12.8 51.2 0l448-448 448 448c12.8 12.8 38.4 12.8 51.2 0 19.2-12.8 19.2-38.4 0-51.2z" p-id="2389"></path></svg>
