<?xml version="1.0" standalone="no"?><!DOCTYPE svg PUBLIC "-//W3C//DTD SVG 1.1//EN" "http://www.w3.org/Graphics/SVG/1.1/DTD/svg11.dtd"><svg t="1587814433840" class="icon" viewBox="0 0 1024 1024" version="1.1" xmlns="http://www.w3.org/2000/svg" p-id="2139" xmlns:xlink="http://www.w3.org/1999/xlink" width="200" height="200"><defs><style type="text/css">@font-face { font-family: element-icons; src: url("chrome-extension://moombeodfomdpjnpocobemoiaemednkg/fonts/element-icons.woff") format("woff"), url("chrome-extension://moombeodfomdpjnpocobemoiaemednkg/fonts/element-icons.ttf ") format("truetype"); }
</style></defs><path d="M844.8 89.6h89.6c32 0 57.6 25.6 57.6 57.6v723.2c0 32-25.6 57.6-57.6 57.6h-89.6V89.6z m0 64v723.2h89.6V153.6h-89.6z m0 0" p-id="2140"></path><path d="M89.6 0h723.2c32 0 57.6 25.6 57.6 57.6V960c0 32-25.6 57.6-57.6 57.6H89.6c-32 0-57.6-25.6-57.6-57.6V64c0-38.4 25.6-64 57.6-64z m0 64v896h723.2V64H89.6z m0 0" p-id="2141"></path><path d="M544 684.8c19.2 6.4 51.2 6.4 70.4 0 12.8-6.4 12.8-19.2-6.4-32-108.8-51.2-115.2-102.4-38.4-153.6l76.8-57.6c64-64 25.6-102.4-64-160-12.8-6.4-44.8-6.4-64 0-19.2 6.4-19.2 12.8-6.4 25.6 12.8 6.4 25.6 19.2 38.4 25.6 38.4 25.6 44.8 57.6 12.8 89.6-19.2 19.2-44.8 38.4-76.8 57.6-38.4 25.6-64 57.6-64 89.6 6.4 44.8 44.8 83.2 121.6 115.2z m-243.2-12.8c6.4 6.4 19.2 6.4 25.6 12.8 19.2 6.4 44.8 6.4 64-6.4 12.8-6.4 12.8-19.2-6.4-25.6-6.4 0-12.8-6.4-12.8-6.4-89.6-44.8-96-96-32-140.8 25.6-19.2 44.8-32 70.4-51.2 25.6-25.6 51.2-44.8 51.2-76.8 0-38.4-51.2-70.4-96-102.4-12.8-6.4-44.8-6.4-64 0-19.2 12.8-25.6 19.2-6.4 32 12.8 6.4 25.6 19.2 32 25.6 38.4 32 44.8 57.6 12.8 89.6-19.2 19.2-44.8 38.4-76.8 57.6-89.6 64-76.8 140.8 38.4 192z m0 0" p-id="2142"></path></svg>
