<?xml version="1.0" standalone="no"?><!DOCTYPE svg PUBLIC "-//W3C//DTD SVG 1.1//EN" "http://www.w3.org/Graphics/SVG/1.1/DTD/svg11.dtd"><svg t="1587814437847" class="icon" viewBox="0 0 1024 1024" version="1.1" xmlns="http://www.w3.org/2000/svg" p-id="2263" xmlns:xlink="http://www.w3.org/1999/xlink" width="200" height="200"><defs><style type="text/css">@font-face { font-family: element-icons; src: url("chrome-extension://moombeodfomdpjnpocobemoiaemednkg/fonts/element-icons.woff") format("woff"), url("chrome-extension://moombeodfomdpjnpocobemoiaemednkg/fonts/element-icons.ttf ") format("truetype"); }
</style></defs><path d="M217.6 236.8V576h352V236.8H217.6zM192 179.2h409.6c6.4 0 12.8 0 19.2 6.4 6.4 6.4 6.4 12.8 6.4 19.2v396.8c0 19.2-12.8 32-32 32H192c-19.2 0-32-12.8-32-32V204.8c0-12.8 12.8-25.6 32-25.6z m0 0" p-id="2264"></path><path d="M147.2 76.8c-6.4 0-19.2 0-19.2 6.4-6.4 6.4-12.8 12.8-12.8 19.2v819.2c0 12.8 12.8 25.6 25.6 25.6h736c12.8 0 25.6-12.8 25.6-25.6V102.4c0-6.4 0-12.8-6.4-19.2-6.4-6.4-12.8-6.4-19.2-6.4H147.2zM134.4 0H896c51.2 0 89.6 38.4 89.6 89.6v844.8c0 51.2-38.4 89.6-89.6 89.6H134.4c-51.2 0-89.6-38.4-89.6-89.6V89.6c0-25.6 6.4-44.8 25.6-64 12.8-12.8 38.4-25.6 64-25.6z m0 0" p-id="2265"></path><path d="M748.8 236.8c0 25.6 12.8 44.8 38.4 51.2 19.2 6.4 44.8 6.4 64-12.8 19.2-19.2 19.2-44.8 12.8-64-6.4-19.2-32-38.4-51.2-38.4-38.4 6.4-64 32-64 64z m0 230.4c0 32 25.6 57.6 57.6 57.6s57.6-25.6 57.6-57.6-25.6-57.6-57.6-57.6c-12.8 0-32 6.4-38.4 19.2-12.8 12.8-19.2 25.6-19.2 38.4z m0 0M192 723.2h646.4c19.2 0 32 12.8 32 32s-12.8 32-32 32H192c-19.2 0-32-12.8-32-32 6.4-19.2 12.8-32 32-32z m0 0" p-id="2266"></path></svg>
