<?xml version="1.0" standalone="no"?><!DOCTYPE svg PUBLIC "-//W3C//DTD SVG 1.1//EN" "http://www.w3.org/Graphics/SVG/1.1/DTD/svg11.dtd"><svg t="1587814447481" class="icon" viewBox="0 0 1024 1024" version="1.1" xmlns="http://www.w3.org/2000/svg" p-id="2510" xmlns:xlink="http://www.w3.org/1999/xlink" width="200" height="200"><defs><style type="text/css">@font-face { font-family: element-icons; src: url("chrome-extension://moombeodfomdpjnpocobemoiaemednkg/fonts/element-icons.woff") format("woff"), url("chrome-extension://moombeodfomdpjnpocobemoiaemednkg/fonts/element-icons.ttf ") format("truetype"); }
</style></defs><path d="M217.6 492.8c0 19.2 12.8 38.4 25.6 44.8 19.2 12.8 38.4 12.8 51.2 0 19.2-6.4 32-25.6 32-44.8 0-19.2-12.8-38.4-25.6-44.8-19.2-12.8-44.8-12.8-57.6 0-19.2 6.4-25.6 25.6-25.6 44.8z m0 0M460.8 492.8c0 19.2 12.8 38.4 25.6 44.8 19.2 12.8 38.4 12.8 51.2 0 19.2-6.4 25.6-25.6 25.6-44.8 0-19.2-12.8-38.4-25.6-44.8-12.8-12.8-38.4-12.8-51.2 0-19.2 6.4-25.6 25.6-25.6 44.8z m0 0M697.6 492.8c0 32 25.6 51.2 51.2 51.2 32 0 51.2-25.6 51.2-51.2 0-32-25.6-51.2-51.2-51.2-25.6-6.4-51.2 19.2-51.2 51.2z m0 0" p-id="2511"></path><path d="M512 32C230.4 32 0 236.8 0 492.8c0 96 32 185.6 89.6 262.4-12.8 44.8-32 102.4-64 147.2-12.8 19.2 0 44.8 19.2 44.8h70.4c57.6 0 121.6-12.8 172.8-44.8 70.4 32 140.8 44.8 224 44.8 281.6 0 512-204.8 512-460.8S793.6 32 512 32zM512 896c-70.4 0-134.4-12.8-204.8-44.8l-32-12.8-19.2 25.6c-32 19.2-76.8 32-134.4 32h-25.6c19.2-38.4 38.4-83.2 51.2-134.4l6.4-25.6-12.8-19.2C89.6 646.4 57.6 569.6 57.6 492.8 51.2 268.8 256 89.6 512 89.6c256 0 460.8 179.2 460.8 403.2S768 896 512 896z m0 0" p-id="2512"></path></svg>
