<?xml version="1.0" standalone="no"?><!DOCTYPE svg PUBLIC "-//W3C//DTD SVG 1.1//EN" "http://www.w3.org/Graphics/SVG/1.1/DTD/svg11.dtd"><svg t="1587825253249" class="icon" viewBox="0 0 1024 1024" version="1.1" xmlns="http://www.w3.org/2000/svg" p-id="1288" xmlns:xlink="http://www.w3.org/1999/xlink" width="200" height="200"><defs><style type="text/css">@font-face { font-family: element-icons; src: url("chrome-extension://moombeodfomdpjnpocobemoiaemednkg/fonts/element-icons.woff") format("woff"), url("chrome-extension://moombeodfomdpjnpocobemoiaemednkg/fonts/element-icons.ttf ") format("truetype"); }
</style></defs><path d="M1007.36 967.25333333c0 24.10666667-19.52 43.73333333-43.73333333 43.73333334h-475.73333334c-24.10666667 0-43.73333333-19.52-43.73333333-43.73333334 0-24.10666667 19.52-43.73333333 43.73333333-43.73333333h475.73333334c24.10666667 0 43.73333333 19.52 43.73333333 43.73333333z" p-id="1289"></path><path d="M995.41333333 998.93333333c-17.17333333 17.17333333-44.8 17.17333333-61.86666666 0.10666667L760.53333333 825.92c-17.06666667-17.06666667-17.06666667-44.69333333 0-61.76l0.10666667-0.10666667c17.06666667-17.06666667 44.69333333-17.06666667 61.76 0l173.01333333 173.01333334c17.06666667 17.06666667 17.06666667 44.8 0 61.86666666z" p-id="1290"></path><path d="M911.2637568 628.38503253a43.62666667 43.62666667 0 1 0 80.83698027-32.84093013 43.62666667 43.62666667 0 1 0-80.83698027 32.84093013Z" p-id="1291"></path><path d="M970.56 321.6C866.45333333 65.49333333 574.4-57.81333333 318.18666667 46.18666667 62.08 150.29333333-61.22666667 442.34666667 42.77333333 698.56c78.93333333 194.34666667 266.24 312.32 463.89333334 312.32v-87.68c-162.98666667-0.10666667-317.44-97.28-382.61333334-257.6-85.86666667-211.30666667 15.89333333-452.16 227.2-538.02666667s452.16 15.89333333 538.02666667 227.2c32.85333333 80.96 38.29333333 166.18666667 20.48 245.44l77.12 27.62666667c0.10666667-1.81333333 1.06666667-3.30666667 2.56-3.94666667 1.49333333-0.64 3.09333333-1.49333333 4.37333333-0.42666666 23.14666667-97.6 17.38666667-201.81333333-23.25333333-301.86666667z" p-id="1292"></path><path d="M683.94666667 477.54666667c0 24.10666667-19.52 43.73333333-43.73333334 43.73333333H355.84c-24.10666667 0-43.73333333-19.52-43.73333333-43.73333333 0-24.10666667 19.52-43.73333333 43.73333333-43.73333334h284.48c24.10666667 0 43.62666667 19.52 43.62666667 43.73333334z" p-id="1293"></path><path d="M526.4 460.48c-17.06666667 17.06666667-44.69333333 17.06666667-61.76 0L324.37333333 320.32c-17.06666667-17.06666667-17.06666667-44.69333333 0-61.76s44.69333333-17.06666667 61.76 0l140.16 140.16c17.06666667 17.06666667 17.06666667 44.69333333 0.10666667 61.76z" p-id="1294"></path><path d="M472 460.48c-17.06666667-17.06666667-17.06666667-44.69333333 0-61.76l140.16-140.16c17.06666667-17.06666667 44.69333333-17.06666667 61.76 0s17.06666667 44.69333333 0 61.76L533.76 460.48c-17.06666667 17.06666667-44.69333333 17.06666667-61.76 0zM683.94666667 626.13333333c0 24.10666667-19.52 43.73333333-43.73333334 43.73333334H355.73333333c-24.10666667 0-43.73333333-19.52-43.73333333-43.73333334 0-24.10666667 19.52-43.73333333 43.73333333-43.73333333h284.48c24.21333333 0 43.73333333 19.62666667 43.73333334 43.73333333z" p-id="1295"></path><path d="M498.02666667 776.85333333c-24.10666667 0-43.73333333-19.52-43.73333334-43.73333333V448.64c0-24.10666667 19.52-43.73333333 43.73333334-43.73333333 24.10666667 0 43.73333333 19.52 43.73333333 43.73333333v284.48c0 24.10666667-19.62666667 43.73333333-43.73333333 43.73333333z" p-id="1296"></path></svg>
