<?xml version="1.0" standalone="no"?><!DOCTYPE svg PUBLIC "-//W3C//DTD SVG 1.1//EN" "http://www.w3.org/Graphics/SVG/1.1/DTD/svg11.dtd"><svg t="1587814394596" class="icon" viewBox="0 0 1024 1024" version="1.1" xmlns="http://www.w3.org/2000/svg" p-id="2016" xmlns:xlink="http://www.w3.org/1999/xlink" width="200" height="200"><defs><style type="text/css">@font-face { font-family: element-icons; src: url("chrome-extension://moombeodfomdpjnpocobemoiaemednkg/fonts/element-icons.woff") format("woff"), url("chrome-extension://moombeodfomdpjnpocobemoiaemednkg/fonts/element-icons.ttf ") format("truetype"); }
</style></defs><path d="M512 326.4C409.6 326.4 326.4 409.6 326.4 512c0 102.4 83.2 185.6 185.6 185.6 102.4 0 185.6-83.2 185.6-185.6 0-102.4-83.2-185.6-185.6-185.6z m0 300.8C441.6 627.2 396.8 576 396.8 512S448 396.8 512 396.8 627.2 448 627.2 512 576 627.2 512 627.2z m0 0" p-id="2017"></path><path d="M953.6 390.4h-76.8l-6.4-6.4-12.8-38.4v-12.8l51.2-51.2c12.8-12.8 19.2-25.6 19.2-44.8 0-19.2-6.4-32-19.2-44.8L832 115.2c-25.6-25.6-70.4-25.6-89.6 0l-51.2 51.2s-6.4 6.4-12.8 0l-44.8-12.8-6.4-6.4V70.4c0-38.4-25.6-64-64-64H454.4c-38.4 0-64 25.6-64 64v76.8l-6.4 6.4-38.4 12.8h-12.8l-51.2-51.2c-12.8-12.8-25.6-19.2-44.8-19.2-19.2 0-32 6.4-44.8 19.2L108.8 192c-12.8 12.8-19.2 25.6-19.2 44.8 0 19.2 6.4 32 19.2 44.8l51.2 51.2s6.4 6.4 0 12.8l-12.8 38.4H64c-38.4 6.4-64 38.4-64 70.4v115.2c0 38.4 25.6 64 64 64h76.8l6.4 6.4 12.8 38.4v6.4l-51.2 51.2c-12.8 12.8-19.2 25.6-19.2 44.8 0 19.2 6.4 32 19.2 44.8L192 915.2c25.6 25.6 70.4 25.6 89.6 0l51.2-51.2s6.4-6.4 12.8 0l38.4 12.8 6.4 6.4V960c0 32 25.6 57.6 64 57.6h115.2c38.4 0 64-25.6 64-64v-76.8l6.4-6.4 38.4-12.8h6.4l51.2 51.2c25.6 25.6 70.4 25.6 89.6 0l76.8-76.8c12.8-12.8 19.2-25.6 19.2-44.8 0-19.2-6.4-32-19.2-44.8l-51.2-51.2s-6.4-6.4 0-12.8l12.8-38.4 6.4-6.4H960c38.4 0 64-25.6 64-64V454.4c-6.4-38.4-32-64-70.4-64z m-147.2 224l-12.8 32c-12.8 25.6-6.4 64 12.8 89.6l51.2 51.2-76.8 76.8-51.2-51.2c-25.6-25.6-64-25.6-89.6-12.8l-32 12.8c-32 6.4-51.2 44.8-51.2 76.8V960H460.8v-70.4c0-32-25.6-64-51.2-76.8l-32-12.8c-25.6-12.8-70.4-6.4-89.6 12.8l-51.2 51.2-76.8-76.8 51.2-51.2c19.2-19.2 25.6-57.6 12.8-83.2l-12.8-32c-6.4-32-38.4-51.2-70.4-51.2H70.4V460.8h70.4c32 0 64-25.6 76.8-51.2l12.8-32c12.8-25.6 6.4-70.4-19.2-89.6l-51.2-51.2 76.8-76.8 51.2 51.2c19.2 19.2 64 25.6 83.2 12.8l32-12.8c32-6.4 57.6-44.8 57.6-76.8v-64h108.8v70.4c0 32 25.6 64 51.2 76.8l32 12.8c25.6 12.8 70.4 6.4 89.6-12.8l51.2-51.2 76.8 76.8-51.2 51.2c-25.6 19.2-32 57.6-19.2 83.2l12.8 32c6.4 32 44.8 51.2 76.8 51.2H960v108.8h-70.4c-44.8-6.4-76.8 19.2-83.2 44.8z m0 0" p-id="2018"></path></svg>
