<?xml version="1.0" standalone="no"?><!DOCTYPE svg PUBLIC "-//W3C//DTD SVG 1.1//EN" "http://www.w3.org/Graphics/SVG/1.1/DTD/svg11.dtd"><svg t="1587814453780" class="icon" viewBox="0 0 1024 1024" version="1.1" xmlns="http://www.w3.org/2000/svg" p-id="2633" xmlns:xlink="http://www.w3.org/1999/xlink" width="200" height="200"><defs><style type="text/css">@font-face { font-family: element-icons; src: url("chrome-extension://moombeodfomdpjnpocobemoiaemednkg/fonts/element-icons.woff") format("woff"), url("chrome-extension://moombeodfomdpjnpocobemoiaemednkg/fonts/element-icons.ttf ") format("truetype"); }
</style></defs><path d="M972.8 979.2c0 25.6-19.2 44.8-44.8 44.8-25.6 0-44.8-19.2-44.8-44.8v-6.4-6.4c-25.6-185.6-185.6-320-377.6-320-192 0-345.6 134.4-371.2 313.6V979.2c0 25.6-19.2 44.8-44.8 44.8-25.6 0-44.8-19.2-44.8-44.8v-6.4-12.8c19.2-166.4 134.4-307.2 288-364.8C249.6 544 192 441.6 192 326.4 192 147.2 332.8 0 512 0s320 147.2 320 326.4c0 115.2-57.6 217.6-147.2 275.2 153.6 57.6 268.8 192 288 364.8v12.8zM755.2 326.4c0-134.4-108.8-243.2-243.2-243.2S262.4 192 262.4 326.4c0 134.4 108.8 243.2 243.2 243.2 140.8 0 249.6-108.8 249.6-243.2z m0 0" p-id="2634"></path></svg>
