<?xml version="1.0" standalone="no"?><!DOCTYPE svg PUBLIC "-//W3C//DTD SVG 1.1//EN" "http://www.w3.org/Graphics/SVG/1.1/DTD/svg11.dtd"><svg t="1587825264231" class="icon" viewBox="0 0 1025 1024" version="1.1" xmlns="http://www.w3.org/2000/svg" p-id="1417" xmlns:xlink="http://www.w3.org/1999/xlink" width="200.1953125" height="200"><defs><style type="text/css">@font-face { font-family: element-icons; src: url("chrome-extension://moombeodfomdpjnpocobemoiaemednkg/fonts/element-icons.woff") format("woff"), url("chrome-extension://moombeodfomdpjnpocobemoiaemednkg/fonts/element-icons.ttf ") format("truetype"); }
</style></defs><path d="M1011.358025 474.07407401c-6.320988-69.530864-25.283951-132.740741-56.888889-195.95061701s-75.851852-113.77777801-126.419753-158.024692S720.592593 44.24691399 657.382716 25.283951c-63.209877-18.962963-126.419753-25.283951-189.62963001-25.283951-69.530864 12.641975-132.740741 31.60493801-195.95061699 63.209877s-113.77777801 75.851852-158.02469101 126.41975299C75.851852 240.197531 44.24691399 297.08642 25.283951 360.296296c-18.962963 63.209877-25.283951 126.419753-25.283951 189.62962999 6.320988 69.530864 25.283951 132.740741 56.888889 195.95061701s75.851852 113.77777801 126.41975299 158.024692 107.45679001 75.851852 170.66666701 94.814814 126.419753 25.283951 189.62962899 25.283951c69.530864-6.320988 132.740741-25.283951 195.95061801-56.888889s113.77777801-75.851852 158.024691-126.41975301 75.851852-107.45679001 94.81481499-170.66666699c12.641975-69.530864 25.283951-132.740741 18.96296301-195.95061699zM549.92592599 120.098765c6.320988-18.962963 37.92592599-44.24691401 44.24691401-44.246913 12.641975 6.320988 12.641975 0 25.28395001 12.641975 18.962963 12.641975 25.283951 25.283951 31.60493799 31.604938 18.962963 6.320988 37.92592599 0 44.24691401 0 12.641975 0 18.962963 12.641975 25.28395099 25.283951 6.320988 12.641975 12.641975 12.641975 18.962963 25.283951 6.320988 6.320988 18.962963 12.641975 31.60493801 12.64197501 25.283951 0 31.60493801 37.92592599 31.60493799 44.24691399 0 6.320988 18.962963 25.283951 25.283951 25.28395001 0 0 44.24691401 6.320988 37.925926 44.24691399 0 12.641975-6.320988 31.60493801-37.925926 50.567901 0 0-214.91358 69.530864-227.555556 82.172839L549.92592599 385.580247c-6.320988-94.814815-12.641975-195.950617 0-265.481482zM467.75308599 474.07407401h63.20987701v63.20987699h-63.20987701v-63.20987699z m-335.01234499-189.62963001c12.641975-25.283951 12.641975-25.283951 25.28395-31.60493801 6.320988 0 12.641975-6.320988 18.96296301-6.32098699 25.283951-12.641975 18.962963-31.60493801 18.96296299-44.246914 0-6.320988 12.641975-18.962963 25.283951-18.96296299 6.320988 0 25.283951-6.320988 31.60493801-12.64197501 6.320988-6.320988 18.962963-12.641975 25.28395099-25.283951 0 0 6.320988-6.320988 18.962963-12.641975 18.962963-12.641975 31.60493801-12.641975 37.92592601-6.320988 0 0 12.641975 0 25.28394999-6.320988 6.320988-6.320988 12.641975-18.962963 18.962963-25.28395 0 0 18.962963-18.962963 44.246914-6.320988 25.283951 12.641975 31.60493801 50.567901 31.604938 50.567901v240.197531l-44.24691299 37.925926s-113.77777801-25.283951-189.62963001-56.888889c-25.283951-6.320988-44.24691401-18.962963-50.567901-18.962963-25.283951-6.320988-44.24691401-50.567901-37.925926-56.888889z m56.88888901 512s-18.962963-18.962963-18.96296301-37.925925c0-12.641975 0-44.24691401-37.925926-50.567902-6.320988 0-12.641975-18.962963-12.641976-25.28395v-31.604939c-6.320988-31.60493801-12.641975-37.92592599-18.96296299-37.92592599-6.320988-6.320988-18.962963-25.283951 0-56.88888802 0 0 6.320988-12.641975 0-37.92592599-12.641975-18.962963-18.962963-18.962963-18.96296201-44.24691401 6.320988-25.283951 31.60493801-31.60493801 31.60493801-31.60493799 31.60493801-12.641975 75.851852 6.320988 56.88888899 0l132.74074 37.92592599C316.049383 486.716049 379.259259 512 391.901235 512l12.64197501 63.209877s-44.24691401 69.530864-56.88888901 82.172839c-12.641975 12.641975-63.209877 88.493827-75.851852 101.135803-18.962963 25.283951-31.60493801 50.567901-82.17283899 37.925925z m524.64197499 69.530865c0 6.320988-6.320988 25.283951-6.320988 25.28395-25.283951 12.641975-50.567901 6.320988-50.567901 6.320988s-18.962963-6.320988-37.92592599 6.320988c-12.641975 6.320988-18.962963 18.962963-18.96296301 18.96296301s-12.641975 6.320988-44.24691299 0c-18.962963-6.320988-50.567901-6.320988-56.88888901 6.32098699-6.320988 12.641975-44.24691401-6.320988-56.888889-12.64197499 0 0-18.962963-12.641975-50.567901 0-12.641975 6.320988-37.92592599 0-44.246914-18.96296301 0 0-12.641975-18.962963-6.320988-44.246914 6.320988-18.962963 18.962963-37.92592599 18.962963-37.925926l120.09876601-189.62962899h63.209876s82.17284 94.814815 107.45678999 126.41975299c12.641975 18.962963 37.92592599 50.567901 50.56790201 69.530864 18.962963 12.641975 18.962963 25.283951 12.64197499 44.246914z m214.91358-297.08642s-18.962963 37.92592599-12.64197499 56.88888901c6.320988 12.641975-12.641975 44.24691401-25.28395101 50.56790099-6.320988 0-12.641975 25.283951-12.641975 25.28395101v31.60493799s-6.320988 25.283951-31.60493799 25.283951c-37.92592599 6.320988-63.209877-18.962963-63.20987701-18.962963L625.77777801 562.567901l18.96296299-63.209876s189.62962999-101.13580199 246.518518-101.13580301c0 0 25.283951 0 50.567901 25.28395101 12.641975 12.641975-6.320988 50.567901-6.320987 50.56790099s-18.962963 18.962963 6.320987 56.88888901c6.320988 6.320988-12.641975 37.92592599-12.641975 37.925926z m0 0" p-id="1418"></path></svg>
